<svg width="152" height="132" viewBox="0 0 152 132" fill="none" xmlns="http://www.w3.org/2000/svg">
<rect x="121.763" y="76.7073" width="11.6128" height="34.8383" rx="5.80639" transform="rotate(-35.2803 121.763 76.7073)" fill="#DB3930"/>
<rect width="11.6128" height="34.8383" rx="5.80639" transform="matrix(0.707107 -0.707107 -0.707107 -0.707107 24.6343 69.8459)" fill="#DB3930"/>
<rect x="55.3223" y="110.321" width="14.516" height="21.2901" rx="7.25799" fill="#DB3930"/>
<rect x="88.2246" y="110.321" width="14.516" height="21.2901" rx="7.25799" fill="#DB3930"/>
<circle cx="79.5156" cy="66.7736" r="58.0639" fill="url(#paint0_linear_170_2242)"/>
<path d="M76.0968 9.68238C78.0476 12.1367 79.3213 14.8915 79.5049 18.1152C79.5069 18.1438 79.5011 18.1724 79.4882 18.1978C79.4753 18.2231 79.4559 18.2441 79.4321 18.2583C79.4083 18.2726 79.3811 18.2795 79.3538 18.2783C79.3264 18.277 79.2999 18.2677 79.2773 18.2514L55.4277 0.98512C57.3683 -0.0166373 59.4639 -0.254388 61.7143 0.271869C66.555 1.40586 71.105 4.47324 74.6547 8.01746C75.0053 8.36607 75.486 8.92105 76.0968 9.68238Z" fill="#7EFB8B"/>
<path d="M103.611 0.999411L79.8243 18.2978C79.8041 18.3125 79.7805 18.3212 79.7559 18.3231C79.7313 18.325 79.7067 18.32 79.6847 18.3085C79.6626 18.2971 79.6438 18.2796 79.6304 18.258C79.617 18.2364 79.6093 18.2113 79.6082 18.1856C79.4935 15.1563 81.1325 11.9186 82.959 9.68665C83.4958 8.99744 84.0651 8.35699 84.6669 7.76528C88.8975 3.60598 97.6169 -2.37251 103.611 0.999411Z" fill="#7EFB8B"/>
<path d="M103.612 0.999132C103.821 2.32813 103.692 3.64711 103.224 4.95607C101.887 8.70465 99.0792 11.6498 96.0153 13.9939L95.4205 14.4547C93.2988 16.0709 91.056 17.3585 88.6921 18.3175C85.7812 19.4154 82.482 19.8843 79.6228 18.4958C79.5957 18.4826 79.5661 18.4755 79.5361 18.4752C79.5061 18.4748 79.4763 18.4812 79.4487 18.4938C76.4517 19.8923 73.1908 19.4094 70.1862 18.2514C67.6948 17.2042 65.3678 15.8271 63.2054 14.1202C59.8163 11.5496 56.1538 7.8191 55.4021 3.29716C55.2874 2.60395 55.2963 1.83326 55.4289 0.985107L79.2785 18.2514C79.3011 18.2677 79.3275 18.277 79.3549 18.2783C79.3823 18.2795 79.4094 18.2726 79.4332 18.2583C79.457 18.2441 79.4765 18.2231 79.4894 18.1978C79.5023 18.1724 79.5081 18.1438 79.5061 18.1152C79.3225 14.8915 78.0487 12.1367 76.0979 9.68237C76.1017 8.21446 76.1024 6.7539 76.0998 5.30068C76.0986 4.43917 76.1821 3.78001 76.3504 3.32321C77.475 0.27987 81.5736 0.307919 82.7039 3.33723C82.8671 3.77534 82.9481 4.39242 82.9468 5.18848C82.943 6.67776 82.9474 8.17706 82.9602 9.68637C81.1337 11.9183 79.4946 15.156 79.6094 18.1853C79.6105 18.2111 79.6181 18.2361 79.6316 18.2577C79.645 18.2793 79.6637 18.2968 79.6858 18.3082C79.7079 18.3197 79.7325 18.3248 79.7571 18.3229C79.7816 18.321 79.8053 18.3122 79.8255 18.2975L103.612 0.999132Z" fill="#33D373"/>
<rect x="95" y="38.7092" width="28.0642" height="40.6447" rx="14.0321" fill="white"/>
<path d="M107.515 46.4509C103.227 46.7594 99.8374 50.6591 99.8374 55.4244V62.6189C99.8374 67.5856 103.52 71.612 108.063 71.612C112.606 71.612 116.289 67.5856 116.289 62.6189V57.1031C115.934 57.1817 115.568 57.223 115.192 57.223H112.999C109.97 57.223 107.515 54.5388 107.515 51.2276V46.4509Z" fill="#1C1C1E"/>
<rect x="35.9673" y="38.7092" width="28.0642" height="40.6447" rx="14.0321" fill="white"/>
<path d="M50.4195 46.4509C46.1323 46.7594 42.7422 50.6591 42.7422 55.4244V62.6189C42.7422 67.5856 46.425 71.612 50.9679 71.612C55.5108 71.612 59.1936 67.5856 59.1936 62.6189V57.1031C58.8393 57.1817 58.4725 57.223 58.0969 57.223H55.9033C52.8747 57.223 50.4195 54.5388 50.4195 51.2276V46.4509Z" fill="#1C1C1E"/>
<path d="M93.0633 91.9345C93.0633 95.2711 91.6359 98.471 89.0951 100.83C86.5543 103.19 83.1083 104.515 79.515 104.515C75.9218 104.515 72.4758 103.19 69.935 100.83C67.3942 98.471 65.9668 95.2711 65.9668 91.9345L79.515 91.9345H93.0633Z" fill="white"/>
<path d="M71.7733 99.1928C71.7733 99.6376 71.9735 100.078 72.3626 100.489C72.7517 100.9 73.3219 101.273 74.0408 101.588C74.7597 101.902 75.6131 102.152 76.5524 102.322C77.4917 102.492 78.4984 102.58 79.5151 102.58C80.5317 102.58 81.5384 102.492 82.4777 102.322C83.417 102.152 84.2704 101.902 84.9893 101.588C85.7082 101.273 86.2785 100.9 86.6675 100.489C87.0566 100.078 87.2568 99.6376 87.2568 99.1928L79.5151 99.1928L71.7733 99.1928Z" fill="#FF4439"/>
<path d="M87.2565 99.1924C87.2565 98.7477 87.0563 98.3072 86.6672 97.8963C86.2781 97.4854 85.7079 97.112 84.989 96.7975C84.2701 96.4829 83.4167 96.2335 82.4774 96.0632C81.5381 95.893 80.5314 95.8054 79.5147 95.8054C78.4981 95.8054 77.4914 95.893 76.5521 96.0632C75.6128 96.2335 74.7594 96.4829 74.0405 96.7975C73.3216 97.112 72.7513 97.4854 72.3623 97.8963C71.9732 98.3072 71.7729 98.7477 71.7729 99.1924L79.5147 99.1924L87.2565 99.1924Z" fill="#FF4439"/>
<path d="M77.5801 55.1606C77.5801 54.0916 78.4466 53.2251 79.5155 53.2251C80.5845 53.2251 81.451 54.0916 81.451 55.1606V72.5797H77.5801V55.1606Z" fill="white"/>
<circle cx="79.5159" cy="75.4827" r="2.87093" stroke="white" stroke-width="2"/>
<path d="M73.9443 83.6944C73.1884 84.4503 71.9629 84.4503 71.2071 83.6944C70.4513 82.9386 70.4513 81.7131 71.2071 80.9573L76.6814 75.4829L79.4186 78.2201L73.9443 83.6944Z" fill="white"/>
<defs>
<linearGradient id="paint0_linear_170_2242" x1="79.5156" y1="8.70971" x2="79.5156" y2="124.838" gradientUnits="userSpaceOnUse">
<stop stop-color="#FF3529"/>
<stop offset="1" stop-color="#FF5247"/>
</linearGradient>
</defs>
</svg>
